<svg width="119" height="50" viewBox="0 0 119 50" fill="none" xmlns="http://www.w3.org/2000/svg">
<path d="M102.04 23.2981C101.882 23.3106 101.725 23.3356 101.573 23.3794C101.359 23.4294 101.195 23.4732 101.088 23.5044L100.849 23.5857L101.359 23.1106L101.788 22.5729L106.317 15.3457H95.7267L94.725 18.753H98.9714C99.1415 18.753 99.3053 18.7155 99.4628 18.6592C99.6392 18.5967 99.8282 18.5217 100.017 18.4404L100.307 18.2966L100.055 18.5029C99.8786 18.6467 99.7148 18.803 99.5573 18.9593C99.4691 19.0406 99.3935 19.1406 99.3242 19.2406L94.9014 26.224L95.229 26.6992H105.202L106.267 23.2919H102.04V23.2981Z" fill="#5845E4"/>
<path d="M93.509 20.8849C93.8933 20.3035 94.0949 19.6158 94.076 18.9155C94.076 18.6592 94.0571 18.3966 94.013 18.1403C93.9437 17.3151 93.572 16.5461 92.9609 15.9772C92.1985 15.4895 91.2913 15.2644 90.3841 15.3395H84.3295V26.6992H88.557V23.2481L90.2895 26.6992H94.5989L94.9014 26.224L91.9906 22.0165C92.6143 21.8227 93.1499 21.4288 93.509 20.8849ZM90.1824 19.8158C90.1383 20.0034 90.0186 20.1722 89.8548 20.2785C89.6595 20.4098 89.4327 20.4723 89.1933 20.466H88.557V18.3529H89.1114C89.8611 18.3529 90.2391 18.6842 90.2391 19.3469C90.2391 19.5032 90.2139 19.6595 90.1761 19.8096L90.1824 19.8158Z" fill="#5845E4"/>
<path d="M118.288 26.7054L114.218 15.3457H109.814L105.744 26.7054H110.306L110.64 25.255H113.386L113.708 26.7054H118.288ZM111.156 22.3791L111.774 19.6658L111.931 19.0343C111.95 18.9343 111.975 18.828 112 18.7217C112.032 18.5717 112.044 18.4154 112.044 18.2654L112.139 19.0218L112.284 19.6658L112.901 22.3791H111.15H111.156Z" fill="#5845E4"/>
<path d="M79.2577 22.5417H82.4583V19.4782H79.2577V18.5342H82.8048L83.6805 15.3457H75.0302V26.7054L82.7733 26.7117L83.6994 23.5232H79.2577V22.5417Z" fill="#5845E4"/>
<path d="M69.6561 22.0165C69.6813 22.3291 69.612 22.6479 69.4545 22.923C69.297 23.1356 69.0575 23.2731 68.7929 23.3106C68.7236 23.3294 68.6543 23.3419 68.585 23.3419C68.5157 23.3419 68.4464 23.3294 68.3771 23.3106C67.8038 23.1981 67.5203 22.7605 67.5203 22.0165V15.3457H63.2928V22.3666C63.2361 23.4919 63.6393 24.5923 64.4079 25.4238C65.3026 26.2615 66.4555 26.7742 67.6841 26.8742C67.7597 26.8867 67.8731 26.9055 68.0306 26.9367H68.585C68.7425 26.9367 68.9063 26.9367 69.0639 26.9242C69.2214 26.9117 69.3663 26.8992 69.4923 26.8742C70.7208 26.7742 71.8738 26.2615 72.7684 25.4238C73.5371 24.5923 73.934 23.4919 73.8836 22.3666V15.3457H69.6561V22.0165Z" fill="#5845E4"/>
<path d="M62.0894 18.5342L62.9463 15.3457H54.3464V26.7054H58.5739V22.5729H61.3901L62.2154 19.4782H58.5739V18.5342H62.0894Z" fill="#5845E4"/>
<path d="M118.887 30.5878C118.817 30.2878 118.704 30.0002 118.553 29.7313C118.408 29.475 118.219 29.2499 117.992 29.0624C117.759 28.8686 117.494 28.7185 117.211 28.6248C116.889 28.5185 116.549 28.4622 116.209 28.4685C115.881 28.4685 115.554 28.5185 115.245 28.6248C114.962 28.7248 114.703 28.8748 114.476 29.0686C114.256 29.2624 114.067 29.4875 113.922 29.7438C113.771 30.0127 113.657 30.3003 113.582 30.5941C113.506 30.9129 113.468 31.2443 113.468 31.5756C113.468 31.9007 113.506 32.2258 113.582 32.5447C113.651 32.8385 113.764 33.1261 113.916 33.3949C114.061 33.645 114.25 33.8763 114.47 34.0639C114.697 34.2577 114.962 34.4078 115.245 34.5078C115.888 34.7204 116.581 34.7204 117.223 34.5078C117.507 34.414 117.771 34.264 117.998 34.0639C118.219 33.8701 118.408 33.645 118.553 33.3949C118.704 33.1324 118.817 32.8448 118.887 32.5447C118.962 32.2258 119 31.9007 119 31.5756C119 31.2443 118.962 30.9129 118.887 30.5878ZM118.364 32.3759C118.313 32.626 118.225 32.8635 118.112 33.0886C118.005 33.3012 117.86 33.5012 117.683 33.6638C117.507 33.8326 117.293 33.9639 117.066 34.0514C116.801 34.1514 116.524 34.2014 116.24 34.1952C115.957 34.1952 115.68 34.1452 115.415 34.0514C115.182 33.9639 114.974 33.8388 114.791 33.67C114.615 33.5075 114.47 33.3074 114.357 33.0949C114.243 32.8698 114.161 32.626 114.111 32.3759C114.054 32.1133 114.029 31.8382 114.029 31.5694C114.029 31.3006 114.054 31.0317 114.111 30.7692C114.161 30.5191 114.25 30.2752 114.363 30.0502C114.47 29.8314 114.615 29.6376 114.791 29.4688C114.968 29.3 115.176 29.1687 115.409 29.0811C115.667 28.9811 115.944 28.9373 116.222 28.9373C116.637 28.9311 117.047 29.0374 117.406 29.2562C117.746 29.475 118.011 29.7939 118.168 30.1627C118.357 30.6066 118.452 31.088 118.439 31.5694C118.439 31.8382 118.414 32.1071 118.357 32.3696L118.364 32.3759Z" fill="#5845E4"/>
<path d="M65.9767 29.0999H67.8542V34.5078H68.4149V29.0936H70.2924V28.6185H65.9767V29.0999Z" fill="#5845E4"/>
<path d="M82.2378 32.1321C82.2504 32.5197 82.1937 32.9136 82.074 33.2824C81.9732 33.57 81.7778 33.8076 81.5195 33.9639C80.8832 34.2577 80.1524 34.264 79.5097 33.9764C79.2451 33.8263 79.0435 33.5888 78.9427 33.3074C78.8104 32.9261 78.7474 32.5259 78.76 32.1258V28.6185H78.1993V32.2884C78.1867 32.7322 78.2749 33.1699 78.4513 33.57C78.6088 33.9139 78.8797 34.1952 79.2136 34.3765C80.0264 34.7516 80.9588 34.7516 81.7778 34.3765C82.1118 34.2014 82.3827 33.9201 82.5465 33.5763C82.7292 33.1699 82.8111 32.726 82.7985 32.2821V28.606H82.2378V32.1321Z" fill="#5845E4"/>
<path d="M57.8493 31.7757C57.6792 31.6507 57.4965 31.5569 57.3012 31.4881C57.0933 31.4131 56.8791 31.3568 56.6649 31.3068C56.4444 31.2568 56.2301 31.2068 56.0159 31.163C55.8143 31.1193 55.619 31.0567 55.43 30.9817C55.2662 30.9192 55.115 30.8192 54.9827 30.6941C54.8567 30.5691 54.7811 30.4065 54.7559 30.2377C54.7307 30.0877 54.737 29.9314 54.7811 29.7814C54.8252 29.6251 54.9071 29.4813 55.0205 29.3625C55.1528 29.2249 55.3103 29.1249 55.4867 29.0561C55.7198 28.9749 55.9592 28.9311 56.2049 28.9373C56.3876 28.9373 56.5767 28.9624 56.7531 29.0124C56.9232 29.0624 57.0807 29.1374 57.2193 29.2437C57.3579 29.35 57.465 29.4875 57.5469 29.6438C57.6288 29.8251 57.6666 30.0252 57.6666 30.2252H58.2021C58.2021 29.9939 58.1643 29.7626 58.0824 29.55C58.0005 29.3375 57.8745 29.1499 57.7107 28.9874C57.5343 28.8186 57.3201 28.6873 57.087 28.606C56.8035 28.5122 56.5074 28.4622 56.2112 28.4685C55.9151 28.4685 55.619 28.506 55.3355 28.5997C55.1024 28.6748 54.8882 28.7936 54.7055 28.9561C54.5417 29.0936 54.4157 29.2624 54.3275 29.4563C54.2456 29.6438 54.2014 29.8439 54.2014 30.0502C54.2014 30.2753 54.2393 30.4941 54.3275 30.7004C54.4031 30.8692 54.5165 31.0255 54.6614 31.1443C54.8063 31.2631 54.9701 31.3631 55.1402 31.4319C55.3229 31.5069 55.5182 31.5694 55.7135 31.6194C55.9151 31.6694 56.1104 31.7194 56.312 31.7632C56.5137 31.807 56.7027 31.8632 56.8791 31.9195C57.0492 31.9695 57.213 32.0445 57.3642 32.1383C57.6603 32.3134 57.8367 32.6322 57.8241 32.9761C57.8241 33.1324 57.7989 33.2949 57.7359 33.4387C57.6792 33.5888 57.5847 33.72 57.465 33.8263C57.3327 33.9451 57.1689 34.0389 56.9988 34.0952C56.7783 34.1639 56.5452 34.1952 56.312 34.1952C56.0978 34.1952 55.8836 34.1702 55.6757 34.1202C55.4867 34.0702 55.3103 33.9889 55.1528 33.8701C54.9953 33.7513 54.8693 33.6013 54.7811 33.4262C54.6803 33.2136 54.6173 32.9886 54.6047 32.7573H54.0565C54.0565 33.0511 54.1069 33.3387 54.2203 33.6013C54.3212 33.8326 54.4787 34.0389 54.6677 34.2014C54.8693 34.364 55.1024 34.489 55.3481 34.5578C55.6253 34.6391 55.9151 34.6828 56.2049 34.6766C56.6019 34.6828 57.0051 34.6141 57.3768 34.4703C57.6792 34.3515 57.9375 34.1514 58.1139 33.8826C58.2903 33.6075 58.3785 33.2824 58.3722 32.9573C58.3785 32.7135 58.3281 32.4697 58.2273 32.2509C58.1391 32.0695 58.0068 31.907 57.843 31.7882L57.8493 31.7757Z" fill="#5845E4"/>
<path d="M104.508 28.621L104.495 34.5103L105.055 34.5115L105.069 28.6223L104.508 28.621Z" fill="#5845E4"/>
<path d="M95.9724 30.5003C95.9283 30.3128 95.8653 30.1315 95.7897 29.9564C95.7141 29.7813 95.6196 29.6126 95.5062 29.4625C95.3928 29.3062 95.2542 29.1749 95.103 29.0624C94.9266 28.9373 94.7375 28.8373 94.5296 28.7685C94.328 28.706 94.1264 28.6623 93.9185 28.6435C93.7043 28.6247 93.4901 28.6122 93.2759 28.6185H91.2472V34.5078H93.2759C93.4712 34.5078 93.6665 34.5015 93.8555 34.4828C94.0445 34.464 94.2272 34.4265 94.4099 34.3765C94.5863 34.3265 94.7628 34.2515 94.9203 34.1577C95.0904 34.0577 95.2416 33.9326 95.3676 33.7888C95.5062 33.645 95.6196 33.4762 95.7078 33.3012C95.8023 33.1199 95.8716 32.9386 95.9283 32.7448C95.985 32.5509 96.0228 32.3509 96.0417 32.1508C96.0669 31.9508 96.0795 31.757 96.0795 31.5569C96.0795 31.4006 96.0669 31.2318 96.0543 31.0505C96.0354 30.8692 96.0039 30.6816 95.9598 30.5003H95.9724ZM95.4936 32.1758C95.4621 32.3884 95.4117 32.601 95.3361 32.801C95.2668 33.0011 95.166 33.1886 95.0337 33.3512C94.9014 33.52 94.7376 33.6575 94.5485 33.7513C94.4036 33.8263 94.2524 33.8826 94.0949 33.9264C93.9437 33.9639 93.7925 33.9889 93.635 34.0014C93.4775 34.0139 93.3137 34.0201 93.1499 34.0201H91.8079V29.0874H93.1499C93.3137 29.0874 93.4838 29.0874 93.6413 29.0999C93.7988 29.1061 93.9563 29.1312 94.1075 29.1624C94.4666 29.2374 94.788 29.4312 95.0211 29.7188C95.1534 29.8814 95.2605 30.0689 95.3298 30.269C95.4054 30.4691 95.4558 30.6816 95.4873 30.8942C95.5188 31.1068 95.5314 31.3256 95.5314 31.5444C95.5314 31.7507 95.5188 31.9633 95.4873 32.1696L95.4936 32.1758Z" fill="#5845E4"/>
<path d="M45.3369 10.8006C45.3369 10.8006 45.3306 10.7756 45.3243 10.7631V10.7193L45.3054 10.6818C45.3054 10.6818 45.2991 10.663 45.2928 10.6505V10.638C45.2928 10.638 45.2739 10.6193 45.2739 10.6068C45.2739 10.5943 45.2613 10.5818 45.255 10.5693L45.2298 10.5317C45.2298 10.5317 45.2109 10.5067 45.1983 10.4942C45.1983 10.488 45.192 10.4817 45.1857 10.4755C45.1857 10.4755 45.1668 10.4442 45.1542 10.4317L45.129 10.4067H45.1227C45.1227 10.4067 45.1038 10.3817 45.0912 10.3755L45.066 10.3567L45.0534 10.3442L45.0282 10.3317H45.0219C45.0219 10.3317 45.003 10.3129 44.9967 10.3129L44.9715 10.3004L44.94 10.2879L44.9211 10.2754L20.1357 0.0535656C19.8648 -0.0589686 19.5561 0.0098023 19.3545 0.222367L0.176408 20.441L0.163808 20.4535C0.163808 20.4535 0.138607 20.4785 0.132306 20.491L0.119706 20.5098V20.5223C0.119706 20.5223 0.0945044 20.5473 0.0882041 20.5598V20.5723C0.0882041 20.5723 0.0693033 20.5911 0.063003 20.6036V20.6223L0.0441021 20.6411C0.0441021 20.6411 0.0315015 20.6911 0.0189009 20.7098V20.7348C0.0189009 20.7348 0.0063003 20.7724 0 20.7849V20.9037C0 20.9037 0 20.9099 0 20.9162V20.9662C0 20.9662 0 21.0037 0.0063003 21.0162V21.0287C0.0063003 21.0287 0.0189009 21.085 0.0252012 21.1162V21.1412C0.0252012 21.1412 0.0441021 21.1725 0.0504024 21.1912L0.063003 21.21C0.063003 21.21 0.0693033 21.2288 0.0756036 21.235L8.77001 37.565V37.5775C8.77001 37.5775 8.80151 37.6212 8.82041 37.6462V37.6587C8.82041 37.6587 8.86452 37.7025 8.88342 37.7275L8.89602 37.74C8.89602 37.74 8.94012 37.7775 8.95902 37.7963H8.96532C8.96532 37.7963 9.01572 37.84 9.04093 37.8526L30.8778 49.9187H30.8904L30.9156 49.9375H30.9282L30.9408 49.95L30.9723 49.9625C30.9723 49.9625 30.9912 49.9687 31.0038 49.975H31.029L31.0542 49.9875C31.0542 49.9875 31.0857 49.9937 31.0983 49.9937H31.1361C31.1361 49.9937 31.1928 50 31.218 50H31.2369C31.2369 50 31.2873 50 31.3125 50H31.3314C31.3314 50 31.3503 50 31.3566 50C31.3629 50 31.3881 50 31.407 49.9875C31.4196 49.9875 31.4259 49.9812 31.4385 49.975H31.4637L31.5267 49.9375L31.5582 49.925H31.5708V49.9125C31.5708 49.9125 31.6023 49.9 31.6149 49.8937L31.6527 49.8687H31.6653V49.8562L31.6905 49.8374C31.6905 49.8374 31.7157 49.8124 31.7283 49.8062C31.7409 49.7937 31.7409 49.7937 31.7472 49.7874L31.7598 49.7749C31.7598 49.7749 31.785 49.7437 31.7913 49.7312C31.7976 49.7249 31.8039 49.7187 31.8102 49.7062V49.6937L46.5844 27.3744C46.6663 27.2431 46.7041 27.093 46.6915 26.943L45.3369 10.8443V10.8006ZM44.6691 19.647L33.4168 35.0017L44.1462 13.4514L44.6691 19.647ZM28.0237 40.6847L9.57645 31.3568L25.9887 33.57L28.0174 40.6847H28.0237ZM3.91878 21.6539L34.6201 21.9977L26.3478 32.0758L3.91878 21.6539ZM27.3181 33.0949L41.2543 16.1209L29.3153 40.097L27.3181 33.0949ZM35.8739 20.4723L14.2387 11.0632L43.1822 11.5696L35.8739 20.4723ZM20.0349 1.52276L40.9582 10.1441L12.3423 9.64398L20.0349 1.52276ZM10.9184 11.1444L32.6418 20.5911L2.29331 20.2472L10.9184 11.1444ZM2.28701 22.4354L22.0825 31.6382L6.02938 29.4688L2.28071 22.4354H2.28701ZM7.23274 31.7319L23.4686 39.9469L9.85366 36.6584L7.23274 31.7319ZM14.2513 39.1467L28.5718 42.6103L30.0839 47.8994L14.2513 39.153V39.1467ZM31.3881 47.3554L29.9075 42.1664L41.4748 26.3803L31.3881 47.3554ZM36.2897 40.3971L44.9085 22.4729L45.2739 26.8242L36.2834 40.3971H36.2897Z" fill="#5845E4"/>
</svg>
