<svg width="57" height="24" viewBox="0 0 57 24" xmlns="http://www.w3.org/2000/svg">
<path d="M48.8761 11.1831C48.8007 11.1891 48.7252 11.2011 48.6528 11.2221C48.5502 11.2461 48.4717 11.2671 48.4204 11.2821L48.3058 11.3211L48.5502 11.0931L48.7554 10.835L50.9252 7.36594H45.8523L45.3725 9.00144H47.4064C47.4879 9.00144 47.5664 8.98343 47.6418 8.95643C47.7263 8.92642 47.8169 8.89041 47.9074 8.85139L48.0462 8.78237L47.9255 8.8814C47.841 8.95042 47.7626 9.02545 47.6871 9.10047C47.6449 9.13948 47.6086 9.1875 47.5754 9.23551L45.457 12.5875L45.6139 12.8156H50.391L50.901 11.1801H48.8761V11.1831Z"/>
<path d="M44.79 10.0247C44.9741 9.74567 45.0707 9.41557 45.0616 9.07946C45.0616 8.95643 45.0526 8.83039 45.0314 8.70735C44.9983 8.31123 44.8202 7.94212 44.5275 7.66903C44.1623 7.43496 43.7278 7.32693 43.2932 7.36294H40.3931V12.8156H42.418V11.1591L43.2479 12.8156H45.3121L45.457 12.5875L44.0627 10.5679C44.3615 10.4749 44.618 10.2858 44.79 10.0247ZM43.1966 9.51159C43.1755 9.60162 43.1182 9.68265 43.0397 9.73366C42.9462 9.79668 42.8375 9.82669 42.7228 9.82369H42.418V8.80938H42.6836C43.0427 8.80938 43.2238 8.96843 43.2238 9.28653C43.2238 9.36155 43.2117 9.43657 43.1936 9.50859L43.1966 9.51159Z"/>
<path d="M56.659 12.8186L54.7095 7.36594H52.6001L50.6506 12.8186H52.8355L52.9954 12.1224H54.3111L54.4651 12.8186H56.659ZM53.2429 10.742L53.5386 9.43957L53.614 9.13648C53.6231 9.08847 53.6352 9.03745 53.6472 8.98643C53.6623 8.91441 53.6684 8.83939 53.6684 8.76737L53.7136 9.13048L53.783 9.43957L54.0788 10.742H53.2398H53.2429Z"/>
<path d="M37.9638 10.82H39.4968V9.34954H37.9638V8.89641H39.6628L40.0823 7.36594H35.9389V12.8186L39.6477 12.8216L40.0913 11.2911H37.9638V10.82Z"/>
<path d="M33.3647 10.5679C33.3767 10.718 33.3436 10.871 33.2681 11.003C33.1927 11.1051 33.078 11.1711 32.9512 11.1891C32.918 11.1981 32.8848 11.2041 32.8517 11.2041C32.8185 11.2041 32.7853 11.1981 32.7521 11.1891C32.4774 11.1351 32.3416 10.925 32.3416 10.5679V7.36594H30.3167V10.736C30.2895 11.2761 30.4827 11.8043 30.8509 12.2034C31.2794 12.6055 31.8316 12.8516 32.4201 12.8996C32.4563 12.9056 32.5106 12.9146 32.5861 12.9296H32.8517C32.9271 12.9296 33.0056 12.9296 33.081 12.9236C33.1564 12.9176 33.2259 12.9116 33.2862 12.8996C33.8747 12.8516 34.4269 12.6055 34.8555 12.2034C35.2236 11.8043 35.4138 11.2761 35.3896 10.736V7.36594H33.3647V10.5679Z"/>
<path d="M29.7403 8.89641L30.1507 7.36594H26.0315V12.8186H28.0564V10.835H29.4053L29.8007 9.34954H28.0564V8.89641H29.7403Z"/>
<path d="M56.9457 14.6822C56.9125 14.5381 56.8582 14.4001 56.7857 14.271C56.7163 14.148 56.6258 14.04 56.5172 13.9499C56.4055 13.8569 56.2787 13.7849 56.1429 13.7399C55.989 13.6889 55.8261 13.6619 55.6631 13.6649C55.5062 13.6649 55.3493 13.6889 55.2014 13.7399C55.0656 13.7879 54.9419 13.8599 54.8332 13.9529C54.7276 14.046 54.6371 14.154 54.5677 14.277C54.4952 14.4061 54.4409 14.5441 54.4047 14.6852C54.3685 14.8382 54.3504 14.9973 54.3504 15.1563C54.3504 15.3124 54.3685 15.4684 54.4047 15.6215C54.4379 15.7625 54.4922 15.9005 54.5646 16.0296C54.6341 16.1496 54.7246 16.2606 54.8302 16.3507C54.9389 16.4437 55.0656 16.5157 55.2014 16.5637C55.5092 16.6658 55.8412 16.6658 56.149 16.5637C56.2848 16.5187 56.4115 16.4467 56.5202 16.3507C56.6258 16.2576 56.7163 16.1496 56.7857 16.0296C56.8582 15.9035 56.9125 15.7655 56.9457 15.6215C56.9819 15.4684 57 15.3124 57 15.1563C57 14.9973 56.9819 14.8382 56.9457 14.6822ZM56.6952 15.5404C56.6711 15.6605 56.6288 15.7745 56.5745 15.8825C56.5232 15.9846 56.4538 16.0806 56.3693 16.1586C56.2848 16.2396 56.1822 16.3027 56.0735 16.3447C55.9468 16.3927 55.814 16.4167 55.6782 16.4137C55.5424 16.4137 55.4096 16.3897 55.2829 16.3447C55.1712 16.3027 55.0716 16.2426 54.9841 16.1616C54.8996 16.0836 54.8302 15.9876 54.7759 15.8855C54.7216 15.7775 54.6823 15.6605 54.6582 15.5404C54.631 15.4144 54.619 15.2823 54.619 15.1533C54.619 15.0243 54.631 14.8952 54.6582 14.7692C54.6823 14.6492 54.7246 14.5321 54.7789 14.4241C54.8302 14.3191 54.8996 14.226 54.9841 14.145C55.0686 14.064 55.1682 14.001 55.2799 13.9589C55.4036 13.9109 55.5364 13.8899 55.6692 13.8899C55.8683 13.8869 56.0645 13.9379 56.2365 14.043C56.3995 14.148 56.5262 14.3011 56.6017 14.4781C56.6922 14.6912 56.7375 14.9222 56.7314 15.1533C56.7314 15.2823 56.7193 15.4114 56.6922 15.5374L56.6952 15.5404Z"/>
<path d="M31.6023 13.9679H32.5016V16.5637H32.7702V13.9649H33.6695V13.7369H31.6023V13.9679Z"/>
<path d="M39.3912 15.4234C39.3972 15.6094 39.3701 15.7985 39.3127 15.9756C39.2645 16.1136 39.1709 16.2276 39.0472 16.3027C38.7424 16.4437 38.3923 16.4467 38.0845 16.3087C37.9578 16.2366 37.8612 16.1226 37.8129 15.9876C37.7495 15.8045 37.7193 15.6124 37.7254 15.4204V13.7369H37.4568V15.4984C37.4508 15.7115 37.493 15.9215 37.5775 16.1136C37.653 16.2787 37.7827 16.4137 37.9427 16.5007C38.332 16.6808 38.7786 16.6808 39.1709 16.5007C39.3308 16.4167 39.4606 16.2817 39.5391 16.1166C39.6266 15.9215 39.6658 15.7085 39.6598 15.4954V13.7309H39.3912V15.4234Z"/>
<path d="M27.7093 15.2523C27.6279 15.1923 27.5403 15.1473 27.4468 15.1143C27.3472 15.0783 27.2446 15.0513 27.142 15.0273C27.0364 15.0033 26.9338 14.9793 26.8312 14.9583C26.7346 14.9372 26.641 14.9072 26.5505 14.8712C26.472 14.8412 26.3996 14.7932 26.3362 14.7332C26.2759 14.6732 26.2397 14.5951 26.2276 14.5141C26.2155 14.4421 26.2186 14.3671 26.2397 14.295C26.2608 14.22 26.3 14.151 26.3544 14.094C26.4177 14.028 26.4932 13.98 26.5777 13.9469C26.6893 13.9079 26.804 13.8869 26.9217 13.8899C27.0092 13.8899 27.0997 13.9019 27.1842 13.9259C27.2657 13.9499 27.3412 13.986 27.4076 14.037C27.474 14.088 27.5253 14.154 27.5645 14.229C27.6037 14.3161 27.6218 14.4121 27.6218 14.5081H27.8783C27.8783 14.3971 27.8602 14.286 27.821 14.184C27.7818 14.082 27.7214 13.992 27.6429 13.9139C27.5585 13.8329 27.4558 13.7699 27.3442 13.7309C27.2084 13.6859 27.0666 13.6619 26.9247 13.6649C26.7829 13.6649 26.641 13.6829 26.5052 13.7279C26.3936 13.7639 26.291 13.8209 26.2035 13.8989C26.125 13.9649 26.0646 14.046 26.0224 14.139C25.9832 14.229 25.962 14.3251 25.962 14.4241C25.962 14.5321 25.9801 14.6372 26.0224 14.7362C26.0586 14.8172 26.1129 14.8922 26.1823 14.9492C26.2517 15.0063 26.3302 15.0543 26.4117 15.0873C26.4992 15.1233 26.5928 15.1533 26.6863 15.1773C26.7829 15.2013 26.8764 15.2253 26.973 15.2463C27.0696 15.2673 27.1601 15.2944 27.2446 15.3214C27.3261 15.3454 27.4045 15.3814 27.477 15.4264C27.6188 15.5104 27.7033 15.6635 27.6973 15.8285C27.6973 15.9035 27.6852 15.9816 27.655 16.0506C27.6279 16.1226 27.5826 16.1856 27.5253 16.2366C27.4619 16.2937 27.3834 16.3387 27.3019 16.3657C27.1963 16.3987 27.0847 16.4137 26.973 16.4137C26.8704 16.4137 26.7678 16.4017 26.6682 16.3777C26.5777 16.3537 26.4932 16.3147 26.4177 16.2576C26.3423 16.2006 26.2819 16.1286 26.2397 16.0446C26.1914 15.9426 26.1612 15.8345 26.1552 15.7235H25.8926C25.8926 15.8645 25.9168 16.0026 25.9711 16.1286C26.0194 16.2396 26.0948 16.3387 26.1854 16.4167C26.2819 16.4947 26.3936 16.5547 26.5113 16.5877C26.6441 16.6268 26.7829 16.6478 26.9217 16.6448C27.1118 16.6478 27.305 16.6148 27.483 16.5457C27.6279 16.4887 27.7516 16.3927 27.8361 16.2636C27.9206 16.1316 27.9628 15.9756 27.9598 15.8195C27.9628 15.7025 27.9387 15.5854 27.8904 15.4804C27.8482 15.3934 27.7848 15.3154 27.7063 15.2583L27.7093 15.2523Z"/>
<path d="M50.0585 13.7381L50.052 16.5649L50.3206 16.5655L50.327 13.7387L50.0585 13.7381Z"/>
<path d="M45.97 14.6402C45.9489 14.5501 45.9187 14.4631 45.8825 14.3791C45.8462 14.295 45.801 14.214 45.7467 14.142C45.6923 14.067 45.626 14.004 45.5535 13.9499C45.469 13.8899 45.3785 13.8419 45.2789 13.8089C45.1823 13.7789 45.0858 13.7579 44.9862 13.7489C44.8836 13.7399 44.781 13.7339 44.6784 13.7369H43.7066V16.5637H44.6784C44.7719 16.5637 44.8655 16.5607 44.956 16.5517C45.0465 16.5427 45.1341 16.5247 45.2216 16.5007C45.3061 16.4767 45.3906 16.4407 45.466 16.3957C45.5475 16.3477 45.6199 16.2877 45.6803 16.2186C45.7467 16.1496 45.801 16.0686 45.8432 15.9846C45.8885 15.8975 45.9217 15.8105 45.9489 15.7175C45.976 15.6245 45.9941 15.5284 46.0032 15.4324C46.0153 15.3364 46.0213 15.2433 46.0213 15.1473C46.0213 15.0723 46.0153 14.9913 46.0092 14.9042C46.0002 14.8172 45.9851 14.7272 45.9639 14.6402H45.97ZM45.7406 15.4444C45.7255 15.5464 45.7014 15.6485 45.6652 15.7445C45.632 15.8405 45.5837 15.9305 45.5203 16.0086C45.457 16.0896 45.3785 16.1556 45.288 16.2006C45.2186 16.2366 45.1461 16.2636 45.0707 16.2847C44.9983 16.3027 44.9258 16.3147 44.8504 16.3207C44.7749 16.3267 44.6965 16.3297 44.618 16.3297H43.9752V13.9619H44.618C44.6965 13.9619 44.778 13.9619 44.8534 13.9679C44.9288 13.9709 45.0043 13.983 45.0767 13.998C45.2487 14.034 45.4026 14.127 45.5143 14.265C45.5777 14.3431 45.629 14.4331 45.6622 14.5291C45.6984 14.6251 45.7225 14.7272 45.7376 14.8292C45.7527 14.9312 45.7587 15.0363 45.7587 15.1413C45.7587 15.2403 45.7527 15.3424 45.7376 15.4414L45.7406 15.4444Z"/>
<path d="M21.716 5.18428C21.716 5.18428 21.713 5.17228 21.71 5.16627V5.14527L21.7009 5.12726C21.7009 5.12726 21.6979 5.11826 21.6949 5.11226V5.10626C21.6949 5.10626 21.6858 5.09725 21.6858 5.09125C21.6858 5.08525 21.6798 5.07925 21.6768 5.07325L21.6647 5.05524C21.6647 5.05524 21.6557 5.04324 21.6496 5.03723C21.6496 5.03423 21.6466 5.03123 21.6436 5.02823C21.6436 5.02823 21.6345 5.01323 21.6285 5.00723L21.6164 4.99522H21.6134C21.6134 4.99522 21.6044 4.98322 21.5983 4.98022L21.5862 4.97121L21.5802 4.96521L21.5681 4.95921H21.5651C21.5651 4.95921 21.5561 4.95021 21.553 4.95021L21.541 4.94421L21.5259 4.9382L21.5168 4.9322L9.64485 0.0257115C9.51509 -0.0283049 9.36722 0.0047051 9.27065 0.106736L0.0844981 9.81169L0.0784625 9.81769C0.0784625 9.81769 0.0663914 9.82969 0.0633736 9.83569L0.057338 9.8447V9.8507C0.057338 9.8507 0.0452668 9.8627 0.042249 9.8687V9.8747C0.042249 9.8747 0.0331957 9.88371 0.0301779 9.88971V9.89871L0.0211245 9.90771C0.0211245 9.90771 0.0150889 9.93172 0.00905337 9.94073V9.95273C0.00905337 9.95273 0.00301779 9.97073 0 9.97674V10.0338C0 10.0338 0 10.0368 0 10.0398V10.0638C0 10.0638 0 10.0818 0.00301779 10.0878V10.0938C0.00301779 10.0938 0.00905337 10.1208 0.0120712 10.1358V10.1478C0.0120712 10.1478 0.0211245 10.1628 0.0241423 10.1718L0.0301779 10.1808C0.0301779 10.1808 0.0331957 10.1898 0.0362135 10.1928L4.20076 18.0312V18.0372C4.20076 18.0372 4.21585 18.0582 4.22491 18.0702V18.0762C4.22491 18.0762 4.24603 18.0972 4.25508 18.1092L4.26112 18.1152C4.26112 18.1152 4.28224 18.1332 4.2913 18.1422H4.29431C4.29431 18.1422 4.31846 18.1632 4.33053 18.1692L14.7902 23.961H14.7962L14.8083 23.97H14.8143L14.8204 23.976L14.8355 23.982C14.8355 23.982 14.8445 23.985 14.8505 23.988H14.8626L14.8747 23.994C14.8747 23.994 14.8898 23.997 14.8958 23.997H14.9139C14.9139 23.997 14.9411 24 14.9531 24H14.9622C14.9622 24 14.9863 24 14.9984 24H15.0075C15.0075 24 15.0165 24 15.0195 24C15.0226 24 15.0346 24 15.0437 23.994C15.0497 23.994 15.0527 23.991 15.0588 23.988H15.0708L15.101 23.97L15.1161 23.964H15.1221V23.958C15.1221 23.958 15.1372 23.952 15.1433 23.949L15.1614 23.937H15.1674V23.931L15.1795 23.922C15.1795 23.922 15.1916 23.91 15.1976 23.907C15.2036 23.901 15.2036 23.901 15.2066 23.898L15.2127 23.892C15.2127 23.892 15.2247 23.877 15.2278 23.871C15.2308 23.868 15.2338 23.865 15.2368 23.859V23.853L22.3135 13.1397C22.3528 13.0767 22.3709 13.0047 22.3648 12.9326L21.716 5.20529V5.18428ZM21.3961 9.43057L16.0064 16.8008L21.1456 6.45667L21.3961 9.43057ZM13.4231 19.5286L4.58704 15.0513L12.4484 16.1136L13.4201 19.5286H13.4231ZM1.87706 10.3939L16.5828 10.5589L12.6204 15.3964L1.87706 10.3939ZM13.0851 15.8855L19.7605 7.73806L14.0418 19.2466L13.0851 15.8855ZM17.1833 9.82669L6.8202 5.31032L20.6839 5.55339L17.1833 9.82669ZM9.59657 0.730926L19.6186 4.86918L5.91185 4.62911L9.59657 0.730926ZM5.22983 5.34933L15.6352 9.88371L1.09848 9.71866L5.22983 5.34933ZM1.09546 10.769L10.5774 15.1863L2.88802 14.145L1.09244 10.769H1.09546ZM3.46442 15.2313L11.2413 19.1745L4.71982 17.5961L3.46442 15.2313ZM6.82624 18.7904L13.6857 20.4529L14.4099 22.9917L6.82624 18.7934V18.7904ZM15.0346 22.7306L14.3254 20.2399L19.8661 12.6626L15.0346 22.7306ZM17.3825 19.3906L21.5108 10.787L21.6858 12.8756L17.3794 19.3906H17.3825Z"/>
</svg>
